#!OML:ASF E:/inclinewalkrobotboard/Project1/Captureday1/Session1/subject1.ASF
:FULLY-SPECIFIED
:DEGREES
201
root 0 0 0 1.539965696990779 -3.8685721671931157 1.851832188989635
lowerback 12.23923497646244 0.961002928506669 0.025255217969321397
upperback -4.446797154026479 1.2166635030553286 -0.6310087571072917
thorax -11.735537143914293 0.562773510109388 -0.9372342821818476
lowerneck -6.067652821647806 1.8661141571439115 4.773943903510754
upperneck 18.11075749075307 3.498978398896992 -8.585450205334912
head 6.648481436029545 1.3077287710648275 -3.279966014104861
rclavicle 2.162501962470508E-15 -7.081775250002195E-16
rhumerus 21.087554961337005 15.626571877229866 -47.80728953528303
rradius 73.2758489139398
rwrist 26.694436404184103
rhand -34.61503248218438 -57.18085384112148
rfingers 7.1250200000000286
rthumb -7.717356436904193 -87.1418300592415
lclavicle -7.384233423599619E-16 -7.484935399620077E-16
lhumerus 23.16862952777798 -14.451821169285704 44.74487789340954
lradius 71.82638982654102
lwrist -22.254662246140192
lhand -45.75326943929184 -71.95537515533991
lfingers 7.1250200000000286
lthumb -18.5073477561347 -42.73877025870382
rfemur -24.971515715924273 -1.9534518268482586 17.77526356626629
rtibia 50.67083078418641
rfoot -34.2555030934447 -18.28671878480999
rtoes -21.87244864019613
lfemur -28.08335922410814 2.143069124194544 -17.152550192785803
ltibia 50.86703238727837
lfoot -35.542189105414174 -0.2797624210068044
ltoes -22.094943228045214
202
root 0 0 0 1.5398753533288714 -3.86817864860551 1.851984703704351
lowerback 12.239350017242767 0.9608104151042747 0.025091991461443697
upperback -4.446820881053992 1.2164017420624462 -0.6309850239844933
thorax -11.735648543680135 0.5626477500130593 -0.9370940696176295
lowerneck -6.067496175244179 1.8661344683868262 4.773992031741804
upperneck 18.110442467077945 3.499023142858822 -8.585489024582621
head 6.648354732476831 1.307754141469192 -3.279980434733986
rclavicle 2.1605213947830096E-15 -7.08620799922205E-16
rhumerus 21.087860168588406 15.626883384884549 -47.80736927271033
rradius 73.27612633116237
rwrist 26.694264681706663
rhand -34.61510787628548 -57.18084447386642
rfingers 7.1250200000000286
rthumb -7.717442020024183 -87.14196479281306
lclavicle -7.402722496683574E-16 -7.492570450749941E-16
lhumerus 23.168974546247867 -14.452413538025912 44.7449541276887
lradius 71.82692814945963
lwrist -22.254385256562713
lhand -45.75343180275736 -71.95540209692435
lfingers 7.1250200000000286
lthumb -18.507505128195657 -42.738783725321724
rfemur -24.971457886908553 -1.9531725854907238 17.775376586732
rtibia 50.66862279788743
rfoot -34.256220642746776 -18.28625373279936
rtoes -21.87464409678998
lfemur -28.08160539694564 2.143120800111501 -17.15306583015409
ltibia 50.86606120036419
lfoot -35.54258983202935 -0.27994098578401383
ltoes -22.09557437326296
203
root 0 0 0 1.5398126780535022 -3.86796184869469 1.851967968342207
lowerback 12.239435592215893 0.9606999132592384 0.02508316790186227
upperback -4.446829124307635 1.216263733562059 -0.6309348855891203
thorax -11.735714208195303 0.5625792074978686 -0.9370247624488377
lowerneck -6.067399168093236 1.8661601482505283 4.774028873175512
upperneck 18.110273923278175 3.499069684727666 -8.585541628379122
head 6.648283490353207 1.307774994670118 -3.2799982798944596
rclavicle 2.1591268632496263E-15 -7.098140298175011E-16
rhumerus 21.087529001491014 15.626299527388214 -47.806812562062696
rradius 73.27586869550282
rwrist 26.69487709275313
rhand -34.61514809780918 -57.18122949497193
rfingers 7.1250200000000286
rthumb -7.7174744456408 -87.1423273279027
lclavicle -7.411847507799483E-16 -7.503950046864539E-16
lhumerus 23.169284752509427 -14.452761452375606 44.744980398455084
lradius 71.82720911789323
lwrist -22.254250558100097
lhand -45.7535126381577 -71.95549672340104
lfingers 7.1250200000000286
lthumb -18.507578482266016 -42.73884127430432
rfemur -24.972036151462103 -1.9525834857583764 17.77593226389215
rtibia 50.66507356826953
rfoot -34.257811584024864 -18.286653497719456
rtoes -21.874921584756695
lfemur -28.080826406586375 2.143400291395648 -17.153082734880396
ltibia 50.86814841017565
lfoot -35.54143484941468 -0.2812164315636103
ltoes -22.096254709210243
204
root 0 0 0 1.5397900241633589 -3.867887063457431 1.8519447605879078
lowerback 12.239469309000356 0.9606624792181032 0.025098703430365465
upperback -4.446832962349477 1.2162195513518765 -0.6309131048611477
thorax -11.735739440688143 0.5625566489430205 -0.9370070841570637
lowerneck -6.067364631927335 1.8661702555880264 4.774042121415486
upperneck 18.11021809131125 3.4990872035588447 -8.585560176269095
head 6.648259312162057 1.3077828811181615 -3.280004430668823
rclavicle 2.158854527525466E-15 -7.099651310668789E-16
rhumerus 21.08741500257903 15.626114318767664 -47.80666547762107
rradius 73.27577346758528
rwrist 26.695034673517554
rhand -34.615154406930785 -57.181297528018675
rfingers 7.1250200000000286
rthumb -7.717480823498198 -87.14238971300432
lclavicle -7.414163465369515E-16 -7.506178329785072E-16
lhumerus 23.169420038705596 -14.452925073757678 44.74499086721458
lradius 71.8273482329841
lwrist -22.254191463229475
lhand -45.75355175010138 -71.95552416899847
lfingers 7.1250200000000286
lthumb -18.507616704602764 -42.738862022315686
rfemur -24.972122757115578 -1.952270068892478 17.77631087916964
rtibia 50.66325154662951
rfoot -34.25878410009445 -18.286808166529617
rtoes -21.87497156354114
lfemur -28.080437835755 2.1435262503811576 -17.15287264164461
ltibia 50.869456179759496
lfoot -35.54011313649439 -0.28214609328433804
ltoes -22.09667638977067
